<mxfile modified="2022-05-02T20:20:00.075Z" host="app.diagrams.net" agent="5.0 (Windows NT 10.0; Win64; x64) AppleWebKit/537.36 (KHTML, like Gecko) Chrome/100.0.4896.127 Safari/537.36 Edg/100.0.1185.50" etag="eK6uEJ2wWi3NXcIgMRpR" compressed="false" version="17.5.0" type="google">
  <diagram name="Qualities/Addressed/Compatibility (Cont)" id="gUCBNfI0CfHKNAS3udf1">
    <mxGraphModel grid="1" page="1" gridSize="10" guides="1" tooltips="1" connect="1" arrows="1" fold="1" pageScale="1" pageWidth="827" pageHeight="1169" math="0" shadow="0">
      <root>
        <mxCell id="h0je3axc_1QiK5JFUibN-0" />
        <mxCell id="h0je3axc_1QiK5JFUibN-20" value="Diagram" parent="h0je3axc_1QiK5JFUibN-0" />
        <UserObject label="Quality" id="h0je3axc_1QiK5JFUibN-21">
          <mxCell style="strokeColor=#bac8d3;html=1;fontColor=#2f5b7c;fontSize=12;align=left;horizontal=0;fillColor=#E6E6E6;" vertex="1" parent="h0je3axc_1QiK5JFUibN-20">
            <mxGeometry x="140" y="180" width="20" height="100" as="geometry" />
          </mxCell>
        </UserObject>
        <UserObject label="Feature/Control" id="h0je3axc_1QiK5JFUibN-22">
          <mxCell style="strokeColor=#bac8d3;html=1;fontColor=#2f5b7c;fontSize=12;align=left;horizontal=0;fontStyle=2" vertex="1" parent="h0je3axc_1QiK5JFUibN-20">
            <mxGeometry x="160" y="180" width="20" height="100" as="geometry" />
          </mxCell>
        </UserObject>
        <UserObject label="Group" id="h0je3axc_1QiK5JFUibN-23">
          <mxCell style="strokeColor=#666666;html=1;fontColor=#333333;fontSize=12;align=left;horizontal=0;fillColor=#f5f5f5;" vertex="1" parent="h0je3axc_1QiK5JFUibN-20">
            <mxGeometry x="120" y="180" width="20" height="100" as="geometry" />
          </mxCell>
        </UserObject>
        <UserObject label="Risk Addressed" id="h0je3axc_1QiK5JFUibN-24">
          <mxCell style="strokeColor=#bac8d3;html=1;fontColor=#2f5b7c;fontSize=12;align=left;horizontal=0;fontStyle=2" vertex="1" parent="h0je3axc_1QiK5JFUibN-20">
            <mxGeometry x="180" y="180" width="20" height="100" as="geometry" />
          </mxCell>
        </UserObject>
        <UserObject label="Accreditability" id="h0je3axc_1QiK5JFUibN-29">
          <mxCell style="strokeColor=#bac8d3;html=1;fontColor=#2f5b7c;fontSize=12;align=left;fillColor=#E6E6E6;" vertex="1" parent="h0je3axc_1QiK5JFUibN-20">
            <mxGeometry x="140" y="300" width="540" height="20" as="geometry" />
          </mxCell>
        </UserObject>
        <UserObject label="Meets Accessibility standards." id="h0je3axc_1QiK5JFUibN-35">
          <mxCell style="strokeColor=#bac8d3;html=1;fontColor=#2f5b7c;fontSize=11;align=left;fontStyle=2" vertex="1" parent="h0je3axc_1QiK5JFUibN-20">
            <mxGeometry x="160" y="840" width="520" height="20" as="geometry" />
          </mxCell>
        </UserObject>
        <UserObject label="Meets Usability standards." id="h0je3axc_1QiK5JFUibN-36">
          <mxCell style="strokeColor=#bac8d3;html=1;fontColor=#2f5b7c;fontSize=11;align=left;fontStyle=2" vertex="1" parent="h0je3axc_1QiK5JFUibN-20">
            <mxGeometry x="160" y="900" width="520" height="20" as="geometry" />
          </mxCell>
        </UserObject>
        <UserObject label="Meets Privacy laws &amp;amp; regulations&amp;amp; principles." id="h0je3axc_1QiK5JFUibN-37">
          <mxCell style="strokeColor=#bac8d3;html=1;fontColor=#2f5b7c;fontSize=11;align=left;fontStyle=2" vertex="1" parent="h0je3axc_1QiK5JFUibN-20">
            <mxGeometry x="160" y="320" width="520" height="20" as="geometry" />
          </mxCell>
        </UserObject>
        <UserObject label="Meets Data Classification standards." id="h0je3axc_1QiK5JFUibN-38">
          <mxCell style="strokeColor=#bac8d3;html=1;fontColor=#2f5b7c;fontSize=11;align=left;fontStyle=2" vertex="1" parent="h0je3axc_1QiK5JFUibN-20">
            <mxGeometry x="160" y="520" width="520" height="20" as="geometry" />
          </mxCell>
        </UserObject>
        <UserObject label="Meets Archival regulations." id="h0je3axc_1QiK5JFUibN-39">
          <mxCell style="strokeColor=#bac8d3;html=1;fontColor=#2f5b7c;fontSize=11;align=left;fontStyle=2" vertex="1" parent="h0je3axc_1QiK5JFUibN-20">
            <mxGeometry x="160" y="420" width="520" height="20" as="geometry" />
          </mxCell>
        </UserObject>
        <UserObject label="Meets Security standards." id="h0je3axc_1QiK5JFUibN-40">
          <mxCell style="strokeColor=#bac8d3;html=1;fontColor=#2f5b7c;fontSize=11;align=left;fontStyle=2" vertex="1" parent="h0je3axc_1QiK5JFUibN-20">
            <mxGeometry x="160" y="580" width="520" height="20" as="geometry" />
          </mxCell>
        </UserObject>
        <UserObject label="Has a DR strategy." id="h0je3axc_1QiK5JFUibN-41">
          <mxCell style="strokeColor=#bac8d3;html=1;fontColor=#2f5b7c;fontSize=11;align=left;fontStyle=2" vertex="1" parent="h0je3axc_1QiK5JFUibN-20">
            <mxGeometry x="160" y="960" width="520" height="20" as="geometry" />
          </mxCell>
        </UserObject>
        <UserObject label="ISO-25010/Compatibility (Cont.)" id="h0je3axc_1QiK5JFUibN-42">
          <mxCell style="strokeColor=#666666;html=1;fontColor=#333333;fontSize=12;align=left;fontStyle=1;fillColor=#CCCCCC;" vertex="1" parent="h0je3axc_1QiK5JFUibN-20">
            <mxGeometry x="120" y="280" width="560" height="20" as="geometry" />
          </mxCell>
        </UserObject>
        <UserObject label="Risk reputational damage." id="h0je3axc_1QiK5JFUibN-49">
          <mxCell style="strokeColor=#bac8d3;html=1;fontColor=#2f5b7c;fontSize=11;align=left;fontStyle=2" vertex="1" parent="h0je3axc_1QiK5JFUibN-20">
            <mxGeometry x="180" y="340" width="500" height="20" as="geometry" />
          </mxCell>
        </UserObject>
        <UserObject label="Risk punitive fines." id="h0je3axc_1QiK5JFUibN-57">
          <mxCell style="strokeColor=#bac8d3;html=1;fontColor=#2f5b7c;fontSize=11;align=left;fontStyle=2" vertex="1" parent="h0je3axc_1QiK5JFUibN-20">
            <mxGeometry x="180" y="360" width="500" height="20" as="geometry" />
          </mxCell>
        </UserObject>
        <UserObject label="Risk compromising information being exploited that undermines agency/government credibility.&amp;nbsp;" id="h0je3axc_1QiK5JFUibN-58">
          <mxCell style="strokeColor=#bac8d3;html=1;fontColor=#2f5b7c;fontSize=11;align=left;fontStyle=2" vertex="1" parent="h0je3axc_1QiK5JFUibN-20">
            <mxGeometry x="180" y="560" width="500" height="20" as="geometry" />
          </mxCell>
        </UserObject>
        <UserObject label="Risk compromising information being exploited that undermines agency/government credibility.&amp;nbsp;" id="h0je3axc_1QiK5JFUibN-59">
          <mxCell style="strokeColor=#bac8d3;html=1;fontColor=#2f5b7c;fontSize=11;align=left;fontStyle=2" vertex="1" parent="h0je3axc_1QiK5JFUibN-20">
            <mxGeometry x="180" y="800" width="500" height="20" as="geometry" />
          </mxCell>
        </UserObject>
        <UserObject label="Risk being sued and/or fined by internal and/or external users and/or stakeholders." id="h0je3axc_1QiK5JFUibN-60">
          <mxCell style="strokeColor=#bac8d3;html=1;fontColor=#2f5b7c;fontSize=11;align=left;fontStyle=2" vertex="1" parent="h0je3axc_1QiK5JFUibN-20">
            <mxGeometry x="180" y="880" width="500" height="20" as="geometry" />
          </mxCell>
        </UserObject>
        <UserObject label="Risk confusing users." id="h0je3axc_1QiK5JFUibN-61">
          <mxCell style="strokeColor=#bac8d3;html=1;fontColor=#2f5b7c;fontSize=11;align=left;fontStyle=2" vertex="1" parent="h0je3axc_1QiK5JFUibN-20">
            <mxGeometry x="180" y="940" width="500" height="20" as="geometry" />
          </mxCell>
        </UserObject>
        <UserObject label="Risk damage to reputation&amp;nbsp;of Agency and/or government." id="h0je3axc_1QiK5JFUibN-62">
          <mxCell style="strokeColor=#bac8d3;html=1;fontColor=#2f5b7c;fontSize=11;align=left;fontStyle=2" vertex="1" parent="h0je3axc_1QiK5JFUibN-20">
            <mxGeometry x="180" y="1000" width="500" height="20" as="geometry" />
          </mxCell>
        </UserObject>
        <UserObject label="Risk investment in system if users will not use system after it loses their data once." id="h0je3axc_1QiK5JFUibN-63">
          <mxCell style="strokeColor=#bac8d3;html=1;fontColor=#2f5b7c;fontSize=11;align=left;fontStyle=2" vertex="1" parent="h0je3axc_1QiK5JFUibN-20">
            <mxGeometry x="180" y="820" width="500" height="20" as="geometry" />
          </mxCell>
        </UserObject>
        <UserObject label="Risk investment in system if users will not use system after it loses their data once." id="h0je3axc_1QiK5JFUibN-64">
          <mxCell style="strokeColor=#bac8d3;html=1;fontColor=#2f5b7c;fontSize=11;align=left;fontStyle=2" vertex="1" parent="h0je3axc_1QiK5JFUibN-20">
            <mxGeometry x="180" y="1020" width="500" height="20" as="geometry" />
          </mxCell>
        </UserObject>
        <UserObject label="Risk investment in system if users will not use system after it loses their data once." id="h0je3axc_1QiK5JFUibN-65">
          <mxCell style="strokeColor=#bac8d3;html=1;fontColor=#2f5b7c;fontSize=11;align=left;fontStyle=2" vertex="1" parent="h0je3axc_1QiK5JFUibN-20">
            <mxGeometry x="180" y="380" width="500" height="20" as="geometry" />
          </mxCell>
        </UserObject>
        <UserObject label="Risk not getting accreditation." id="_8LKf3L3WeBOI2PhCMiq-0">
          <mxCell style="strokeColor=#bac8d3;html=1;fontColor=#2f5b7c;fontSize=11;align=left;fontStyle=2" vertex="1" parent="h0je3axc_1QiK5JFUibN-20">
            <mxGeometry x="180" y="440" width="500" height="20" as="geometry" />
          </mxCell>
        </UserObject>
        <UserObject label="Notes" id="_8LKf3L3WeBOI2PhCMiq-1">
          <mxCell style="strokeColor=#bac8d3;html=1;fontColor=#2f5b7c;fontSize=12;align=left;horizontal=0;fontStyle=2" vertex="1" parent="h0je3axc_1QiK5JFUibN-20">
            <mxGeometry x="200" y="180" width="20" height="100" as="geometry" />
          </mxCell>
        </UserObject>
        <UserObject label="Specifically, that Records are Logically deleted (using State) versus Physically deleted." id="_8LKf3L3WeBOI2PhCMiq-3">
          <mxCell style="strokeColor=#bac8d3;html=1;fontColor=#2f5b7c;fontSize=11;align=left;fontStyle=2" vertex="1" parent="h0je3axc_1QiK5JFUibN-20">
            <mxGeometry x="200" y="460" width="480" height="20" as="geometry" />
          </mxCell>
        </UserObject>
        <UserObject label="So that achivists do not need to reconstruct from backups values at specific dates &amp;amp; times." id="_8LKf3L3WeBOI2PhCMiq-4">
          <mxCell style="strokeColor=#bac8d3;html=1;fontColor=#2f5b7c;fontSize=11;align=left;fontStyle=2" vertex="1" parent="h0je3axc_1QiK5JFUibN-20">
            <mxGeometry x="200" y="480" width="480" height="20" as="geometry" />
          </mxCell>
        </UserObject>
        <UserObject label="Risk not getting accreditation, and therefore deployment scheduling delays." id="_8LKf3L3WeBOI2PhCMiq-7">
          <mxCell style="strokeColor=#bac8d3;html=1;fontColor=#2f5b7c;fontSize=11;align=left;fontStyle=2" vertex="1" parent="h0je3axc_1QiK5JFUibN-20">
            <mxGeometry x="180" y="400" width="500" height="20" as="geometry" />
          </mxCell>
        </UserObject>
        <UserObject label="Specifically, the following minimums:" id="_8LKf3L3WeBOI2PhCMiq-10">
          <mxCell style="strokeColor=#bac8d3;html=1;fontColor=#2f5b7c;fontSize=11;align=left;fontStyle=2" vertex="1" parent="h0je3axc_1QiK5JFUibN-20">
            <mxGeometry x="180" y="600" width="500" height="20" as="geometry" />
          </mxCell>
        </UserObject>
        <UserObject label="That data at rest, including backups, is encrypted." id="_8LKf3L3WeBOI2PhCMiq-11">
          <mxCell style="strokeColor=#bac8d3;html=1;fontColor=#2f5b7c;fontSize=11;align=left;fontStyle=2" vertex="1" parent="h0je3axc_1QiK5JFUibN-20">
            <mxGeometry x="200" y="660" width="480" height="20" as="geometry" />
          </mxCell>
        </UserObject>
        <UserObject label="That the least # of stakeholders have audited access to production configuration secrets, data." id="_8LKf3L3WeBOI2PhCMiq-12">
          <mxCell style="strokeColor=#bac8d3;html=1;fontColor=#2f5b7c;fontSize=11;align=left;fontStyle=2" vertex="1" parent="h0je3axc_1QiK5JFUibN-20">
            <mxGeometry x="200" y="680" width="480" height="20" as="geometry" />
          </mxCell>
        </UserObject>
        <UserObject label="That communication between &lt;u&gt;all&lt;/u&gt; components is over secure channels." id="_8LKf3L3WeBOI2PhCMiq-13">
          <mxCell style="strokeColor=#bac8d3;html=1;fontColor=#2f5b7c;fontSize=11;align=left;fontStyle=2" vertex="1" parent="h0je3axc_1QiK5JFUibN-20">
            <mxGeometry x="200" y="640" width="480" height="20" as="geometry" />
          </mxCell>
        </UserObject>
        <UserObject label="That infrastructure is horizontally scalable to handle DoS attacks." id="_8LKf3L3WeBOI2PhCMiq-14">
          <mxCell style="strokeColor=#bac8d3;html=1;fontColor=#2f5b7c;fontSize=11;align=left;fontStyle=2" vertex="1" parent="h0je3axc_1QiK5JFUibN-20">
            <mxGeometry x="200" y="740" width="480" height="20" as="geometry" />
          </mxCell>
        </UserObject>
        <UserObject label="That compilation, testing, deployment&amp;nbsp; is automated to be down the least amount of time." id="_8LKf3L3WeBOI2PhCMiq-15">
          <mxCell style="strokeColor=#bac8d3;html=1;fontColor=#2f5b7c;fontSize=11;align=left;fontStyle=2" vertex="1" parent="h0je3axc_1QiK5JFUibN-20">
            <mxGeometry x="200" y="760" width="480" height="20" as="geometry" />
          </mxCell>
        </UserObject>
        <UserObject label="That custom software data access is via ORM to diminish Sql Injection attack surface." id="_8LKf3L3WeBOI2PhCMiq-16">
          <mxCell style="strokeColor=#bac8d3;html=1;fontColor=#2f5b7c;fontSize=11;align=left;fontStyle=2" vertex="1" parent="h0je3axc_1QiK5JFUibN-20">
            <mxGeometry x="200" y="700" width="480" height="20" as="geometry" />
          </mxCell>
        </UserObject>
        <mxCell id="_8LKf3L3WeBOI2PhCMiq-17" value="Text" style="text;html=1;align=center;verticalAlign=middle;resizable=0;points=[];autosize=1;fontSize=12;fontColor=#000000;" vertex="1" parent="h0je3axc_1QiK5JFUibN-20">
          <mxGeometry x="228" y="751" width="40" height="20" as="geometry" />
        </mxCell>
        <UserObject label="That backups are continuous and incremental and regularly tested." id="_8LKf3L3WeBOI2PhCMiq-18">
          <mxCell style="strokeColor=#bac8d3;html=1;fontColor=#2f5b7c;fontSize=11;align=left;fontStyle=2" vertex="1" parent="h0je3axc_1QiK5JFUibN-20">
            <mxGeometry x="200" y="720" width="480" height="20" as="geometry" />
          </mxCell>
        </UserObject>
        <UserObject label="That&amp;nbsp; the system uses external IdPs to provide SSO. And should persist PII in an external service." id="_8LKf3L3WeBOI2PhCMiq-19">
          <mxCell style="strokeColor=#bac8d3;html=1;fontColor=#2f5b7c;fontSize=11;align=left;fontStyle=2" vertex="1" parent="h0je3axc_1QiK5JFUibN-20">
            <mxGeometry x="200" y="620" width="480" height="20" as="geometry" />
          </mxCell>
        </UserObject>
        <UserObject label="Risk not getting accreditation, and therefore deployment scheduling delays." id="_8LKf3L3WeBOI2PhCMiq-20">
          <mxCell style="strokeColor=#bac8d3;html=1;fontColor=#2f5b7c;fontSize=11;align=left;fontStyle=2" vertex="1" parent="h0je3axc_1QiK5JFUibN-20">
            <mxGeometry x="180" y="500" width="500" height="20" as="geometry" />
          </mxCell>
        </UserObject>
        <UserObject label="Risk not getting accreditation, and therefore deployment scheduling delays." id="_8LKf3L3WeBOI2PhCMiq-21">
          <mxCell style="strokeColor=#bac8d3;html=1;fontColor=#2f5b7c;fontSize=11;align=left;fontStyle=2" vertex="1" parent="h0je3axc_1QiK5JFUibN-20">
            <mxGeometry x="180" y="540" width="500" height="20" as="geometry" />
          </mxCell>
        </UserObject>
        <UserObject label="Risk not getting accreditation, and therefore deployment scheduling delays." id="_8LKf3L3WeBOI2PhCMiq-22">
          <mxCell style="strokeColor=#bac8d3;html=1;fontColor=#2f5b7c;fontSize=11;align=left;fontStyle=2" vertex="1" parent="h0je3axc_1QiK5JFUibN-20">
            <mxGeometry x="180" y="780" width="500" height="20" as="geometry" />
          </mxCell>
        </UserObject>
        <UserObject label="Risk not getting accreditation, and therefore deployment scheduling delays." id="_8LKf3L3WeBOI2PhCMiq-23">
          <mxCell style="strokeColor=#bac8d3;html=1;fontColor=#2f5b7c;fontSize=11;align=left;fontStyle=2" vertex="1" parent="h0je3axc_1QiK5JFUibN-20">
            <mxGeometry x="180" y="860" width="500" height="20" as="geometry" />
          </mxCell>
        </UserObject>
        <UserObject label="Risk not getting accreditation, and therefore deployment scheduling delays." id="_8LKf3L3WeBOI2PhCMiq-24">
          <mxCell style="strokeColor=#bac8d3;html=1;fontColor=#2f5b7c;fontSize=11;align=left;fontStyle=2" vertex="1" parent="h0je3axc_1QiK5JFUibN-20">
            <mxGeometry x="180" y="920" width="500" height="20" as="geometry" />
          </mxCell>
        </UserObject>
        <UserObject label="Risk not getting accreditation, and therefore deployment scheduling delays." id="_8LKf3L3WeBOI2PhCMiq-25">
          <mxCell style="strokeColor=#bac8d3;html=1;fontColor=#2f5b7c;fontSize=11;align=left;fontStyle=2" vertex="1" parent="h0je3axc_1QiK5JFUibN-20">
            <mxGeometry x="180" y="980" width="500" height="20" as="geometry" />
          </mxCell>
        </UserObject>
        <UserObject label="Infrastructure" id="wufVvhKcUI9mgUT4Hlji-0">
          <mxCell style="strokeColor=#bac8d3;html=1;fontColor=#2f5b7c;fontSize=12;align=left;horizontal=0;fontStyle=2" vertex="1" parent="h0je3axc_1QiK5JFUibN-20">
            <mxGeometry x="600" y="180" width="20" height="100" as="geometry" />
          </mxCell>
        </UserObject>
        <UserObject label="Info Svc" id="wufVvhKcUI9mgUT4Hlji-1">
          <mxCell style="strokeColor=#bac8d3;html=1;fontColor=#2f5b7c;fontSize=12;align=left;horizontal=0;fontStyle=2" vertex="1" parent="h0je3axc_1QiK5JFUibN-20">
            <mxGeometry x="640" y="180" width="20" height="100" as="geometry" />
          </mxCell>
        </UserObject>
        <UserObject label="Info Svc Client" id="wufVvhKcUI9mgUT4Hlji-2">
          <mxCell style="strokeColor=#bac8d3;html=1;fontColor=#2f5b7c;fontSize=12;align=left;horizontal=0;fontStyle=2" vertex="1" parent="h0je3axc_1QiK5JFUibN-20">
            <mxGeometry x="660" y="180" width="20" height="100" as="geometry" />
          </mxCell>
        </UserObject>
        <UserObject label="Delivery Service" id="wufVvhKcUI9mgUT4Hlji-3">
          <mxCell style="strokeColor=#bac8d3;html=1;fontColor=#2f5b7c;fontSize=12;align=left;horizontal=0;fontStyle=2" vertex="1" parent="h0je3axc_1QiK5JFUibN-20">
            <mxGeometry x="620" y="180" width="20" height="100" as="geometry" />
          </mxCell>
        </UserObject>
        <UserObject label="Processes" id="wufVvhKcUI9mgUT4Hlji-4">
          <mxCell style="strokeColor=#bac8d3;html=1;fontColor=#2f5b7c;fontSize=12;align=left;horizontal=0;fontStyle=2" vertex="1" parent="h0je3axc_1QiK5JFUibN-20">
            <mxGeometry x="580" y="180" width="20" height="100" as="geometry" />
          </mxCell>
        </UserObject>
        <mxCell id="wufVvhKcUI9mgUT4Hlji-6" value="&lt;b&gt;X&lt;/b&gt;" style="text;html=1;strokeColor=#666666;fillColor=#f5f5f5;align=center;verticalAlign=middle;whiteSpace=wrap;rounded=0;fontSize=12;fontColor=#333333;" vertex="1" parent="h0je3axc_1QiK5JFUibN-20">
          <mxGeometry x="640" y="320" width="20" height="20" as="geometry" />
        </mxCell>
        <mxCell id="wufVvhKcUI9mgUT4Hlji-7" value="&lt;b&gt;X&lt;/b&gt;" style="text;html=1;strokeColor=#666666;fillColor=#f5f5f5;align=center;verticalAlign=middle;whiteSpace=wrap;rounded=0;fontSize=12;fontColor=#333333;" vertex="1" parent="h0je3axc_1QiK5JFUibN-20">
          <mxGeometry x="640" y="420" width="20" height="20" as="geometry" />
        </mxCell>
        <mxCell id="wufVvhKcUI9mgUT4Hlji-8" value="&lt;b&gt;X&lt;/b&gt;" style="text;html=1;strokeColor=#666666;fillColor=#f5f5f5;align=center;verticalAlign=middle;whiteSpace=wrap;rounded=0;fontSize=12;fontColor=#333333;" vertex="1" parent="h0je3axc_1QiK5JFUibN-20">
          <mxGeometry x="640" y="520" width="20" height="20" as="geometry" />
        </mxCell>
        <mxCell id="wufVvhKcUI9mgUT4Hlji-9" value="&lt;b&gt;X&lt;/b&gt;" style="text;html=1;strokeColor=#666666;fillColor=#f5f5f5;align=center;verticalAlign=middle;whiteSpace=wrap;rounded=0;fontSize=12;fontColor=#333333;" vertex="1" parent="h0je3axc_1QiK5JFUibN-20">
          <mxGeometry x="640" y="580" width="20" height="20" as="geometry" />
        </mxCell>
        <mxCell id="wufVvhKcUI9mgUT4Hlji-10" value="&lt;b&gt;X&lt;/b&gt;" style="text;html=1;strokeColor=#666666;fillColor=#f5f5f5;align=center;verticalAlign=middle;whiteSpace=wrap;rounded=0;fontSize=12;fontColor=#333333;" vertex="1" parent="h0je3axc_1QiK5JFUibN-20">
          <mxGeometry x="660" y="840" width="20" height="20" as="geometry" />
        </mxCell>
        <mxCell id="wufVvhKcUI9mgUT4Hlji-11" value="&lt;b&gt;X&lt;/b&gt;" style="text;html=1;strokeColor=#666666;fillColor=#f5f5f5;align=center;verticalAlign=middle;whiteSpace=wrap;rounded=0;fontSize=12;fontColor=#333333;" vertex="1" parent="h0je3axc_1QiK5JFUibN-20">
          <mxGeometry x="660" y="900" width="20" height="20" as="geometry" />
        </mxCell>
        <mxCell id="wufVvhKcUI9mgUT4Hlji-12" value="&lt;b&gt;X&lt;/b&gt;" style="text;html=1;strokeColor=#666666;fillColor=#f5f5f5;align=center;verticalAlign=middle;whiteSpace=wrap;rounded=0;fontSize=12;fontColor=#333333;" vertex="1" parent="h0je3axc_1QiK5JFUibN-20">
          <mxGeometry x="640" y="960" width="20" height="20" as="geometry" />
        </mxCell>
        <mxCell id="wufVvhKcUI9mgUT4Hlji-13" value="&lt;b&gt;X&lt;/b&gt;" style="text;html=1;strokeColor=#666666;fillColor=#f5f5f5;align=center;verticalAlign=middle;whiteSpace=wrap;rounded=0;fontSize=12;fontColor=#333333;" vertex="1" parent="h0je3axc_1QiK5JFUibN-20">
          <mxGeometry x="600" y="960" width="20" height="20" as="geometry" />
        </mxCell>
        <mxCell id="wufVvhKcUI9mgUT4Hlji-14" value="&lt;b&gt;X&lt;/b&gt;" style="text;html=1;strokeColor=#666666;fillColor=#f5f5f5;align=center;verticalAlign=middle;whiteSpace=wrap;rounded=0;fontSize=12;fontColor=#333333;" vertex="1" parent="h0je3axc_1QiK5JFUibN-20">
          <mxGeometry x="620" y="960" width="20" height="20" as="geometry" />
        </mxCell>
        <mxCell id="h0je3axc_1QiK5JFUibN-18" value="Title/Diagram" parent="h0je3axc_1QiK5JFUibN-0" />
        <mxCell id="h0je3axc_1QiK5JFUibN-19" value="&lt;span style=&quot;font-size: 12px&quot;&gt;Diagram: Base System Logical Module - Qualities -&amp;nbsp;&lt;/span&gt;&lt;span style=&quot;font-size: 12px&quot;&gt;ISO-25010 Qualities Addressed - Compatibility (Cont.)&lt;/span&gt;" style="text;strokeColor=none;fillColor=none;html=1;fontSize=12;fontStyle=2;verticalAlign=middle;align=left;shadow=0;glass=0;comic=0;opacity=30;fontColor=#808080;" vertex="1" parent="h0je3axc_1QiK5JFUibN-18">
          <mxGeometry x="120" y="1040" width="560" height="40" as="geometry" />
        </mxCell>
        <mxCell id="h0je3axc_1QiK5JFUibN-14" value="Title/Page" visible="0" parent="h0je3axc_1QiK5JFUibN-0" />
        <mxCell id="h0je3axc_1QiK5JFUibN-15" value="" style="group;fontSize=10;" vertex="1" connectable="0" parent="h0je3axc_1QiK5JFUibN-14">
          <mxGeometry x="120" y="120" width="560" height="45" as="geometry" />
        </mxCell>
        <mxCell id="h0je3axc_1QiK5JFUibN-16" value="&lt;span style=&quot;font-size: 12px;&quot;&gt;Base Logical Module - Qualities -&amp;nbsp;&lt;/span&gt;&lt;span style=&quot;font-size: 12px;&quot;&gt;ISO-25010 Qualities Addressed - Compatibility&lt;/span&gt;" style="text;strokeColor=none;fillColor=none;html=1;fontSize=12;fontStyle=1;verticalAlign=middle;align=left;shadow=0;glass=0;comic=0;opacity=30;fontColor=#808080;" vertex="1" parent="h0je3axc_1QiK5JFUibN-15">
          <mxGeometry width="560" height="40" as="geometry" />
        </mxCell>
        <mxCell id="h0je3axc_1QiK5JFUibN-17" value="" style="line;strokeWidth=2;html=1;shadow=0;glass=0;comic=0;fillColor=none;fontSize=10;fontColor=#CCCCCC;labelBackgroundColor=none;strokeColor=#CCCCCC;" vertex="1" parent="h0je3axc_1QiK5JFUibN-15">
          <mxGeometry y="35" width="560" height="10" as="geometry" />
        </mxCell>
        <mxCell id="h0je3axc_1QiK5JFUibN-1" value="About" parent="h0je3axc_1QiK5JFUibN-0" />
      </root>
    </mxGraphModel>
  </diagram>
</mxfile>
